<svg height="512" viewBox="0 0 192 192" width="512" xmlns="http://www.w3.org/2000/svg" xmlns:xlink="http://www.w3.org/1999/xlink"><linearGradient id="New_Gradient_Swatch_1" gradientUnits="userSpaceOnUse" x1="68" x2="124" y1="68" y2="12"><stop offset="0" stop-color="#34cdfa"/><stop offset="1" stop-color="#e8d9f1"/></linearGradient><g id="_04-box" data-name="04-box"><g id="Flat"><path d="m120 24v-16h-16v-8h-16v8a16.019 16.019 0 0 0 -16 16v8a16.019 16.019 0 0 0 16 16h16v8h-32v16h16v8h16v-8a16.019 16.019 0 0 0 16-16v-8a16.019 16.019 0 0 0 -16-16h-16v-8z" fill="url(#New_Gradient_Swatch_1)"/><path d="m160 96-16 8-32-8h-80a8 8 0 0 0 -8 8v80a8 8 0 0 0 8 8h128a8 8 0 0 0 8-8v-80a8 8 0 0 0 -8-8z" fill="#ccf2fe"/><path d="m112 192v-96l-40 8-40-8a8 8 0 0 0 -8 8v80a8 8 0 0 0 8 8z" fill="#99e6fd"/><path d="m48 184v-63.7h-24v63.7a8 8 0 0 0 8 8h24a8 8 0 0 1 -8-8z" fill="#67d9fb"/><path d="m84 128h-68a8 8 0 0 1 -6.4-12.8l12-16a8 8 0 0 1 6.4-3.2h84l-21.6 28.8a8 8 0 0 1 -6.4 3.2z" fill="#ccf2fe"/><path d="m33.6 115.2 12-16a8 8 0 0 1 6.4-3.2h-24a8 8 0 0 0 -6.4 3.2l-12 16a8 8 0 0 0 6.4 12.8h24a8 8 0 0 1 -6.4-12.8z" fill="#99e6fd"/><path d="m176 128h-36a8 8 0 0 1 -6.4-3.2l-21.6-28.8h52a8 8 0 0 1 6.4 3.2l12 16a8 8 0 0 1 -6.4 12.8z" fill="#e6f9fe"/><g fill="#01c0f9"><path d="m179.563 49.454-11.563 7.708v-25.052h-16v25.052l-11.562-7.708-8.875 13.312 24 16a8 8 0 0 0 8.875 0l24-16z"/><path d="m51.563 49.454-11.563 7.708v-25.052h-16v25.052l-11.562-7.708-8.875 13.312 24 16a8 8 0 0 0 8.875 0l24-16z"/></g></g></g></svg>