<?xml version="1.0"?>
<svg xmlns="http://www.w3.org/2000/svg" viewBox="0 0 192 192" width="512" height="512"><g id="_11-bag" data-name="11-bag"><path d="M170.53,80.411,153.086,74.6l16.229-2.7-2.63-15.782L127.9,62.573l6.757-10.135A8,8,0,0,0,128,40H64a8,8,0,0,0-6.656,12.438L68.581,69.294C41.97,86.109,24,115.707,24,144c0,17.338,9.561,30.916,27.647,39.264C68.732,191.149,88.356,192,96,192c33.214,0,72-12.571,72-48,0-19.133-8.225-38.856-21.775-54.826l19.245,6.415ZM113.052,56l-5.333,8H84.281l-5.333-8ZM96,176c-5.732,0-56-.9-56-32,0-24.253,17.559-50.877,41.982-64h28.036C134.441,93.123,152,119.747,152,144,152,175.1,101.732,176,96,176Z"/><path d="M104,88H88v8a16.019,16.019,0,0,0-16,16v8a16.019,16.019,0,0,0,16,16h16v8H72v16H88v8h16v-8a16.019,16.019,0,0,0,16-16v-8a16.019,16.019,0,0,0-16-16H88v-8h32V96H104Z"/><path d="M160,48a7.992,7.992,0,0,0,4.438-1.344l24-16-8.875-13.312L168,25.052V0H152V25.052l-11.562-7.708-8.875,13.312,24,16A7.987,7.987,0,0,0,160,48Z"/><path d="M32,48a7.992,7.992,0,0,0,4.438-1.344l24-16L51.563,17.344,40,25.052V0H24V25.052L12.438,17.344,3.563,30.656l24,16A7.987,7.987,0,0,0,32,48Z"/></g></svg>
