<svg id="Layer_1" enable-background="new 0 0 512.002 512.002" height="512" viewBox="0 0 512.002 512.002" width="512" xmlns="http://www.w3.org/2000/svg"><g><g><path d="m477.65 413.57c3.498-6.697 5.488-14.301 5.488-22.366v-19.242c0-26.735-21.75-48.485-48.484-48.485-26.735 0-48.485 21.75-48.485 48.485v19.242c0 8.07 1.993 15.679 5.495 22.379-6.199 4.16-11.749 9.177-16.507 14.917-4.723-5.683-10.302-10.716-16.61-14.93 3.498-6.697 5.489-14.302 5.489-22.367v-19.242c0-26.735-21.75-48.485-48.484-48.485s-48.484 21.75-48.484 48.485v19.242c0 8.064 1.99 15.669 5.488 22.366-6.305 4.211-11.882 9.24-16.604 14.919-4.755-5.738-10.308-10.748-16.511-14.909 3.501-6.7 5.494-14.308 5.494-22.376v-19.242c0-26.735-21.75-48.485-48.484-48.485s-48.484 21.75-48.484 48.485v19.242c0 8.064 1.99 15.668 5.488 22.365-6.303 4.21-11.879 9.238-16.6 14.914-4.754-5.738-10.309-10.743-16.515-14.904 3.501-6.7 5.493-14.308 5.493-22.376v-19.242c0-26.735-21.75-48.485-48.484-48.485-26.735 0-48.485 21.75-48.485 48.485v19.242c0 8.064 1.99 15.669 5.488 22.366-21.404 14.3-34.352 38.106-34.352 64.226v24.207c0 5.522 4.478 10 10 10h492.002c5.522 0 10-4.478 10-10v-24.207c0-26.12-12.947-49.926-34.352-64.224zm-71.481-41.608c0-15.707 12.778-28.485 28.485-28.485 15.706 0 28.484 12.778 28.484 28.485v19.242c0 15.706-12.778 28.484-28.484 28.484-15.707 0-28.485-12.778-28.485-28.484zm-119.102 0c0-15.707 12.778-28.485 28.484-28.485s28.484 12.778 28.484 28.485v19.242c0 15.706-12.778 28.484-28.484 28.484s-28.484-12.778-28.484-28.484zm-119.101 0c0-15.707 12.778-28.485 28.484-28.485s28.484 12.778 28.484 28.485v19.242c0 15.706-12.778 28.484-28.484 28.484s-28.484-12.778-28.484-28.484zm-119.103 0c0-15.707 12.778-28.485 28.485-28.485 15.706 0 28.484 12.778 28.484 28.485v19.242c0 15.706-12.778 28.484-28.484 28.484-15.707 0-28.485-12.778-28.485-28.484zm-28.863 105.832c0-20.022 10.284-38.219 27.163-48.689 8.289 6.615 18.78 10.584 30.186 10.584 11.403 0 21.891-3.967 30.179-10.579 7.244 4.508 13.37 10.53 18.011 17.725-4.179 9.571-6.437 20.063-6.437 30.96v14.207h-99.102zm119.103 0c0-20.022 10.283-38.22 27.163-48.689 8.289 6.615 18.78 10.584 30.185 10.584 11.403 0 21.891-3.967 30.179-10.579 7.241 4.506 13.368 10.533 18.01 17.728-4.178 9.57-6.435 20.061-6.435 30.957v14.207h-99.102zm119.101 0c0-20.021 10.283-38.219 27.163-48.689 8.289 6.616 18.78 10.584 30.185 10.584s21.895-3.968 30.184-10.583c16.878 10.47 27.164 28.674 27.164 48.689v14.207h-114.696zm233.798 14.207h-99.102v-14.207c0-10.892-2.257-21.383-6.436-30.954 4.644-7.194 10.778-13.226 18.011-17.73 8.288 6.612 18.776 10.579 30.179 10.579 11.406 0 21.896-3.968 30.185-10.584 16.88 10.47 27.163 28.668 27.163 48.689z"/><path d="m140.999 250.006h86.704l14.156 14.156c3.899 3.897 9.02 5.847 14.141 5.847 5.121-.001 10.244-1.95 14.143-5.849l14.154-14.154h86.706c11.028 0 20-8.972 20-20v-210.006c0-11.027-8.972-19.999-20-19.999h-230.004c-11.028 0-20 8.972-20 19.999v60.008c0 5.522 4.478 10 10 10s10-4.478 10-10v-60.008h230.004v210.007h-90.848c-2.652 0-5.195 1.054-7.071 2.929l-17.083 17.084-17.084-17.084c-1.876-1.875-4.419-2.929-7.071-2.929h-90.847v-59.999c0-5.522-4.478-10-10-10s-10 4.478-10 10v59.999c0 11.028 8.972 19.999 20 19.999z"/><path d="m325.581 117.377c1.933-11.074-5.503-21.655-16.552-23.584l-23.494-4.162-11.666-21.46c-.002-.002-.003-.004-.004-.007-1.907-3.501-4.777-6.345-8.298-8.222-4.796-2.558-10.299-3.098-15.503-1.513-5.201 1.583-9.475 5.096-12.035 9.896l-11.218 21.058-23.565 4.38c-4.112.658-7.871 2.533-10.885 5.431-8.092 7.785-8.342 20.702-.55 28.804l16.574 17.188-3.043 23.196c-.783 4.254-.178 8.716 1.721 12.615 3.527 7.241 10.803 11.459 18.36 11.458 2.991 0 6.027-.66 8.892-2.056l21.438-10.436 22.061 10.51c3.585 1.711 7.583 2.325 11.565 1.774 11.124-1.539 18.923-11.843 17.384-22.981l-3.305-23.644 16.211-17.099c3.123-3.011 5.164-6.858 5.912-11.146zm-19.703-3.437c-.011.065-.032.136-.111.209-.148.139-.293.282-.434.431l-19.701 20.779c-2.094 2.208-3.068 5.25-2.647 8.264l3.969 28.398c.028.202-.113.39-.313.417-.132.017-.199-.007-.217-.016l-26.415-12.584c-2.746-1.308-5.941-1.296-8.678.037l-25.771 12.544c-.188.093-.422.014-.515-.177-.029-.062-.055-.132-.032-.237.049-.239.09-.479.121-.721l3.708-28.271c.396-3.018-.604-6.051-2.716-8.242l-19.908-20.646c-.14-.146-.135-.377.009-.516.061-.058.114-.086.188-.097.114-.018.229-.037.343-.058l28.443-5.286c2.992-.557 5.567-2.444 6.999-5.13l13.479-25.304c.022-.042.069-.129.209-.171.041-.013.077-.018.109-.018.077 0 .129.027.159.044.058.03.104.066.145.141l13.962 25.684c1.454 2.673 4.046 4.54 7.042 5.07l28.261 5.007c.051.009.157.027.248.157.092.132.074.239.064.292z"/><path d="m130.999 135.01c5.522 0 10-4.478 10-10v-.007c0-5.522-4.478-9.996-10-9.996s-10 4.48-10 10.003 4.478 10 10 10z"/></g></g></svg>